<svg xmlns="http://www.w3.org/2000/svg" viewBox="0 0 45 45" width="45" height="45">
	<style>
		tspan { white-space:pre }
		.shp0 { fill: #fafafa } 
		.shp1 { fill: #bababa } 
	</style>
	<g id="Slider">
		<g id="iPhone Horizontal">
			<g id="Home Button">
				<path id="Circle" class="shp0" d="M43.19 22.19C43.19 33.75 33.85 43.12 22.32 43.12C10.79 43.12 1.44 33.75 1.44 22.19C1.44 10.63 10.79 1.26 22.32 1.26C33.85 1.26 43.19 10.63 43.19 22.19Z" />
				<path id="Square" fill-rule="evenodd" class="shp1" d="M30.51 17.88L30.51 26.7C30.51 28.75 28.84 30.42 26.79 30.42L18 30.42C15.95 30.42 14.28 28.75 14.28 26.7L14.28 17.88C14.28 15.82 15.95 14.16 18 14.16L26.79 14.16C28.84 14.16 30.51 15.82 30.51 17.88ZM25.86 15.87L18.94 15.87C17.33 15.87 16.02 17.18 16.02 18.8L16.02 25.75C16.02 27.36 17.33 28.67 18.94 28.67L25.86 28.67C27.48 28.67 28.79 27.36 28.79 25.75L28.79 18.8C28.79 17.18 27.48 15.87 25.86 15.87Z" />
			</g>
		</g>
	</g>
</svg>